<?xml version="1.0" standalone="no"?>
<!DOCTYPE svg PUBLIC "-//W3C//DTD SVG 20010904//EN"
 "http://www.w3.org/TR/2001/REC-SVG-20010904/DTD/svg10.dtd">
<svg version="1.0" xmlns="http://www.w3.org/2000/svg"
 width="500.000000pt" height="500.000000pt" viewBox="0 0 500.000000 500.000000"
 preserveAspectRatio="xMidYMid meet">
<metadata>
Created by potrace 1.14, written by Peter Selinger 2001-2017
</metadata>
<g transform="translate(0.000000,500.000000) scale(0.100000,-0.100000)"
fill="#000000" stroke="none">
<path d="M2630 4804 c-19 -2 -73 -9 -120 -14 -329 -40 -688 -175 -975 -368
-151 -102 -232 -168 -356 -292 -179 -180 -315 -370 -430 -600 -106 -212 -170
-408 -215 -655 -22 -120 -30 -497 -14 -636 59 -522 290 -999 665 -1375 182
-183 376 -320 620 -440 344 -168 694 -243 1080 -231 585 19 1102 237 1535 645
l75 71 -100 98 c-102 100 -213 205 -365 347 -47 44 -130 123 -185 175 -55 53
-137 130 -181 171 -44 41 -154 145 -244 230 -90 85 -203 191 -249 235 -47 44
-124 117 -171 162 -47 45 -107 102 -135 127 l-50 45 818 819 819 819 -74 64
c-40 35 -75 67 -78 70 -3 3 -45 36 -94 73 -311 233 -663 382 -1046 441 -100
15 -454 28 -530 19z"/>
</g>
</svg>
